<?xml version="1.0" encoding="UTF-8"?>
<svg width="87px" height="20px" viewBox="0 0 87 20" version="1.1" xmlns="http://www.w3.org/2000/svg" xmlns:xlink="http://www.w3.org/1999/xlink">
    <!-- Generator: Sketch 43.2 (39069) - http://www.bohemiancoding.com/sketch -->
    <title>Group 2</title>
    <desc>Created with Sketch.</desc>
    <defs></defs>
    <g id="Page-1" stroke="none" stroke-width="1" fill="none" fill-rule="evenodd">
        <g id="16" transform="translate(-18.000000, -13.000000)">
            <g id="Group-3">
                <g id="Group-2" transform="translate(16.000000, 11.000000)">
                    <g id="Group">
                        <path d="M29.6247326,15.2587253 C30.539956,15.2587253 31.1851136,14.6885861 31.1851136,13.848381 L31.1851136,13.4582857 C30.855033,13.3082491 30.4199267,13.2032234 29.9548132,13.2032234 C29.0545934,13.2032234 28.5294652,13.623326 28.5294652,14.2834872 L28.5294652,14.3134945 C28.5294652,14.8986374 28.9945788,15.2587253 29.6247326,15.2587253 Z M35.6862125,16.8791209 L38.5219048,16.8791209 L38.5219048,14.1634579 C38.5219048,12.197978 39.4122935,10.7790799 40.9576707,10.7790799 L41.1827257,10.7790799 L41.1827257,8.44706227 C39.7723814,8.38704762 39.002022,9.0021978 38.5219048,10.1574799 L38.5219048,8.44706227 L35.6862125,8.44706227 L35.6862125,16.8791209 Z M45.6936557,17.0441612 C46.5038535,17.0441612 47.194022,16.8491136 47.7191502,16.5490403 L47.7191502,14.3134945 C47.3590623,14.5085421 46.9839707,14.5985641 46.5788718,14.5985641 C46.0387399,14.5985641 45.7836777,14.3585055 45.7836777,13.7733626 L45.7836777,10.7576264 L47.7491575,10.7576264 L47.7491575,8.44706227 L45.7836777,8.44706227 L45.7836777,6.31654212 L42.9479853,6.31654212 L42.9479853,8.44706227 L41.9427399,8.44706227 L41.9427399,10.7576264 L42.9479853,10.7576264 L42.9479853,14.3134945 C42.9479853,16.3089817 43.9832381,17.0441612 45.6936557,17.0441612 Z M53.3755311,17.0741685 C50.7498901,17.0741685 48.8744322,15.3037363 48.8744322,12.7081026 L48.8744322,12.6780952 C48.8744322,10.2324982 50.6298608,8.28202198 53.1204689,8.28202198 C56.0011722,8.28202198 57.3364982,10.4275458 57.3364982,12.8881465 C57.3364982,13.0681905 57.3214945,13.2932454 57.3064908,13.488293 L51.6201026,13.488293 C51.8601612,14.4335238 52.5503297,14.9286447 53.4955604,14.9286447 C54.2307399,14.9286447 54.7858755,14.6585788 55.4010256,14.0734359 L56.9764103,15.3937582 C56.1662125,16.4140073 55.0109304,17.0741685 53.3755311,17.0741685 Z M51.5900952,11.9729231 L54.6508425,11.9729231 C54.5308132,11.0126886 53.9756777,10.3975385 53.1204689,10.3975385 C52.2952674,10.3975385 51.7401319,11.0276923 51.5900952,11.9729231 Z M59.3169817,16.8791209 L62.1676777,16.8791209 L62.1676777,10.7576264 L64.0431355,10.7576264 L64.0431355,8.55208791 L62.107663,8.55208791 L62.107663,8.32703297 C62.107663,7.75689377 62.4077363,7.5018315 62.9628718,7.5018315 C63.3829744,7.5018315 63.7130549,7.57684982 64.0581392,7.68187546 L64.0581392,5.61136996 C63.6080293,5.476337 63.0528938,5.38631502 62.1826813,5.38631502 C61.2074432,5.38631502 60.5172747,5.5963663 60.0221538,6.09148718 C59.5420366,6.58660806 59.3169817,7.29178022 59.3169817,8.25201465 L59.3169817,8.50707692 L58.3267399,8.50707692 L58.3267399,10.7576264 L59.3169817,10.7576264 L59.3169817,16.8791209 Z M68.5742418,15.2587253 C69.4894652,15.2587253 70.1346227,14.6885861 70.1346227,13.848381 L70.1346227,13.4582857 C69.8045421,13.3082491 69.3694359,13.2032234 68.9043223,13.2032234 C68.0041026,13.2032234 67.4789744,13.623326 67.4789744,14.2834872 L67.4789744,14.3134945 C67.4789744,14.8986374 67.9440879,15.2587253 68.5742418,15.2587253 Z M67.584,17.0591648 C65.9786081,17.0591648 64.7483077,16.1289377 64.7483077,14.4635311 L64.7483077,14.4335238 C64.7483077,12.6630916 66.0836337,11.7778755 68.0641172,11.7778755 C68.8593114,11.7778755 69.5944908,11.9279121 70.1046154,12.107956 L70.1046154,11.9729231 C70.1046154,11.0576996 69.5743372,10.5295759 68.4340588,10.5295759 C67.533839,10.5295759 66.9112723,10.5625788 65.9203957,10.7475818 L65.9203957,8.61449033 C66.9323005,8.34175761 67.3889524,8.34203663 68.8443077,8.34203663 C69.324308,8.34203663 69.754741,8.37881237 70.1397825,8.45131988 C70.9342179,8.60092073 71.5354224,8.90263121 71.9800733,9.34728205 C72.6102271,9.9774359 72.880293,10.862652 72.880293,12.0329377 L72.880293,16.8791209 L70.0896117,16.8791209 L70.0896117,15.9939048 C69.5044689,16.6390623 68.7092747,17.0591648 67.584,17.0591648 Z M28.6344908,17.1510623 C27.0290989,17.1510623 25.7987985,16.2208352 25.7987985,14.5554286 L25.7987985,14.5254212 C25.7987985,12.754989 27.1341245,11.8697729 29.1146081,11.8697729 C29.9098022,11.8697729 30.6449817,12.0198095 31.1551062,12.1998535 L31.1551062,12.0648205 C31.1551062,11.1495971 30.624828,10.6214733 29.4845496,10.6214733 C28.5843298,10.6214733 27.9617632,10.6544762 26.9708866,10.8394793 L26.9708866,8.70638776 C27.9827913,8.43365505 28.4394432,8.43393407 29.8947985,8.43393407 C30.3747988,8.43393407 30.8052318,8.4707098 31.1902733,8.54321732 C31.9847087,8.69281817 32.5859133,8.99452865 33.0305641,9.43917949 C33.6607179,10.0693333 33.9307839,10.9545495 33.9307839,12.1248352 L33.9307839,16.9710183 L31.1401026,16.9710183 L31.1401026,16.0858022 C30.5549597,16.7309597 29.7597656,17.1510623 28.6344908,17.1510623 Z M78.6867106,17.0741685 C80.5021538,17.0741685 81.5824176,16.338989 82.3626081,15.2287179 L80.5021538,13.80337 C80.0220366,14.3435018 79.5569231,14.6735824 78.8217436,14.6735824 C77.7714872,14.6735824 77.0513114,13.80337 77.0513114,12.6780952 L77.0513114,12.6480879 C77.0513114,11.5678242 77.7714872,10.6826081 78.7917363,10.6826081 C79.5269158,10.6826081 79.9920293,11.0276923 80.4271355,11.5828278 L82.3175971,10.0674579 C81.5824176,8.98719414 80.4721465,8.28202198 78.7767326,8.28202198 C76.1210842,8.28202198 74.2756337,10.2925128 74.2756337,12.6780952 L74.2756337,12.7081026 C74.2756337,15.093685 76.1360879,17.0741685 78.6867106,17.0741685 Z M86.8787106,17.0441612 C87.6889084,17.0441612 88.3790769,16.8491136 88.9042051,16.5490403 L88.9042051,14.3134945 C88.5441172,14.5085421 88.1690256,14.5985641 87.7639267,14.5985641 C87.2237949,14.5985641 86.9687326,14.3585055 86.9687326,13.7733626 L86.9687326,10.7576264 L88.9342125,10.7576264 L88.9342125,8.44706227 L86.9687326,8.44706227 L86.9687326,6.31654212 L84.1330403,6.31654212 L84.1330403,8.44706227 L83.1277949,8.44706227 L83.1277949,10.7576264 L84.1330403,10.7576264 L84.1330403,14.3134945 C84.1330403,16.3089817 85.168293,17.0441612 86.8787106,17.0441612 Z" id="artefact" fill="#FFFFFF"></path>
                        <path d="M14.7485276,6.30896721 L9.12215402,6.30896721 C7.26309786,6.30896721 6.30896721,7.26309786 6.30896721,9.12215402 L6.30896721,14.7485276 C6.30896721,16.6075838 7.26309786,17.5617145 9.12215402,17.5617145 L14.7485276,17.5617145 C16.6075838,17.5617145 17.5617145,16.6075838 17.5617145,14.7485276 L17.5617145,9.12215402 C17.5617145,7.26309786 16.6075838,6.30896721 14.7485276,6.30896721 Z M14.7485276,3.49578039 C18.161264,3.49578039 20.3749013,5.70941769 20.3749013,9.12215402 L20.3749013,14.7485276 C20.3749013,18.161264 18.161264,20.3749013 14.7485276,20.3749013 L9.12215402,20.3749013 C5.70941769,20.3749013 3.49578039,18.161264 3.49578039,14.7485276 L3.49578039,9.12215402 C3.49578039,5.70941769 5.70941769,3.49578039 9.12215402,3.49578039 L14.7485276,3.49578039 Z M17.5617145,10.5287474 L17.5617145,13.3419342 L20.3749013,13.3419342 L20.3749013,10.5287474 L17.5617145,10.5287474 Z M10.5287474,3.49578039 L10.5287474,6.30896721 L13.3419342,6.30896721 L13.3419342,3.49578039 L10.5287474,3.49578039 Z M10.5287474,17.5617145 L10.5287474,20.3749013 L13.3419342,20.3749013 L13.3419342,17.5617145 L10.5287474,17.5617145 Z M3.49578039,10.5287474 L3.49578039,13.3419342 L6.30896721,13.3419342 L6.30896721,10.5287474 L3.49578039,10.5287474 Z" id="Combined-Shape" fill="#29D09C" fill-rule="nonzero" transform="translate(11.935341, 11.935341) rotate(-45.000000) translate(-11.935341, -11.935341) "></path>
                    </g>
                </g>
            </g>
        </g>
    </g>
</svg>